<?xml version="1.0" encoding="UTF-8" standalone="no"?>
<svg
   width="124"
   height="135"
   viewBox="0 0 124 135"
     fill="#322783"
   version="1.1"
   id="svg12"
   sodipodi:docname="circle (1).svg"
   inkscape:version="1.3 (0e150ed6c4, 2023-07-21)"
   xmlns:inkscape="http://www.inkscape.org/namespaces/inkscape"
   xmlns:sodipodi="http://sodipodi.sourceforge.net/DTD/sodipodi-0.dtd"
   xmlns="http://www.w3.org/2000/svg"
   xmlns:svg="http://www.w3.org/2000/svg">
  <defs
     id="defs12" />
  <sodipodi:namedview
     id="namedview12"
     pagecolor="#505050"
     bordercolor="#eeeeee"
     borderopacity="1"
     inkscape:showpageshadow="0"
     inkscape:pageopacity="0"
     inkscape:pagecheckerboard="0"
     inkscape:deskcolor="#505050"
     inkscape:zoom="1.187037"
     inkscape:cx="373.19813"
     inkscape:cy="177.33229"
     inkscape:window-width="1600"
     inkscape:window-height="837"
     inkscape:window-x="-8"
     inkscape:window-y="-8"
     inkscape:window-maximized="1"
     inkscape:current-layer="svg12" />
  <path
     d="M18.9224 41.5058C18.03 42.2653 17.0819 42.7609 16.0782 42.9927C15.0749 43.2157 14.0852 43.1755 13.1092 42.8723C12.1331 42.5691 11.2421 42.0104 10.436 41.196C9.5796 40.3307 9.02169 39.4117 8.7623 38.439C8.50329 37.4575 8.53252 36.495 8.85 35.5514C9.17243 34.6036 9.77741 33.7521 10.6649 32.9969C11.1707 32.5665 11.6768 32.2381 12.1834 32.0116C12.69 31.7852 13.1443 31.6074 13.5464 31.4784C13.9439 31.3447 14.2294 31.2041 14.403 31.0564C14.5616 30.9214 14.6327 30.7671 14.6163 30.5936C14.5998 30.4201 14.5041 30.1988 14.3293 29.9299L14.5599 29.7337C14.7423 29.9365 14.9476 30.1624 15.1759 30.4115C15.4041 30.6605 15.6944 30.9676 16.0466 31.3328C16.4039 31.6937 16.8596 32.1541 17.4137 32.714L17.1757 32.9165C16.0656 32.1733 14.9692 31.8361 13.8865 31.905C12.8041 31.9651 11.8118 32.3791 10.9094 33.1469C9.85325 34.0456 9.37824 35.0976 9.48434 36.3031C9.59044 37.5085 10.2641 38.7381 11.5052 39.9921C12.7601 41.2599 14.0399 41.9993 15.3448 42.2102C16.6497 42.4211 17.8252 42.0815 18.8714 41.1913C19.7738 40.4234 20.3153 39.5492 20.4958 38.5688C20.6812 37.5841 20.4062 36.531 19.6706 35.4094L19.9086 35.2069C20.4261 35.7298 20.8612 36.1694 21.2138 36.5257C21.5669 36.8731 21.8695 37.1696 22.1218 37.4153C22.379 37.6567 22.6248 37.8866 22.8591 38.1049L22.6285 38.3011C22.35 38.1119 22.1227 38.0069 21.9469 37.9861C21.7664 37.9606 21.5993 38.0133 21.4456 38.1441C21.2572 38.3044 21.0717 38.5646 20.889 38.9246C20.7114 39.2803 20.4742 39.6867 20.1776 40.1437C19.8813 40.5919 19.4629 41.046 18.9224 41.5058Z"
     fill="#322783"
     id="path1" />
  <path
     d="M30.816 33.8401L30.6983 33.5612C31.1408 33.3708 31.4193 33.1687 31.5339 32.9549C31.6546 32.7386 31.6276 32.4236 31.4529 32.0097L29.459 27.2864C29.302 26.9145 29.0872 26.6568 28.8146 26.5131C28.5395 26.3635 28.1686 26.3467 27.7017 26.4627L27.584 26.1838C27.7851 26.1246 27.9686 26.0655 28.1344 26.0064C28.3063 25.945 28.4678 25.8841 28.619 25.8238C29.2359 25.578 29.7209 25.3042 30.0739 25.0023L32.8046 31.471C32.9793 31.8849 33.1877 32.1277 33.4299 32.1993C33.6721 32.2709 34.0226 32.2224 34.4812 32.0536L34.5989 32.3325C34.4124 32.3928 34.1352 32.4893 33.7673 32.6219C33.4029 32.7461 33.0423 32.8793 32.6854 33.0215C32.3286 33.1637 31.9726 33.3161 31.6173 33.4787C31.2595 33.6353 30.9924 33.7558 30.816 33.8401ZM28.7763 23.5855C28.5344 23.6819 28.2896 23.6709 28.0417 23.5524C27.7914 23.428 27.613 23.2398 27.5067 22.9879C27.3978 22.73 27.39 22.4773 27.4834 22.2299C27.5768 21.9825 27.7445 21.8106 27.9864 21.7141C28.2162 21.6226 28.4538 21.633 28.699 21.7454C28.9443 21.8579 29.1214 22.0431 29.2303 22.301C29.3366 22.5529 29.3457 22.8086 29.2573 23.068C29.1665 23.3214 29.0062 23.4939 28.7763 23.5855Z"
     fill="#322783"
     id="path2" />
  <path
     d="M41.1535 30.366L41.1216 30.0649C41.6169 29.9843 41.9434 29.8543 42.1011 29.6752C42.2652 29.4952 42.3236 29.1819 42.2761 28.7351L41.735 23.6368C41.6841 23.1578 41.551 22.8278 41.3355 22.647C41.1193 22.4598 40.7769 22.3784 40.3083 22.4029L40.2763 22.1018C40.5049 22.097 40.7066 22.0859 40.8814 22.0686C41.062 22.044 41.2362 22.0202 41.4039 21.9974C41.649 21.9639 41.9086 21.9121 42.1825 21.8419C42.4565 21.7717 42.7212 21.6765 42.9768 21.5563L43.0912 22.6342C43.2506 22.225 43.5175 21.9029 43.8917 21.668C44.2717 21.4257 44.652 21.2786 45.0326 21.2267C45.4326 21.1722 45.767 21.2711 46.0359 21.5234C46.3041 21.7692 46.462 22.1155 46.5094 22.5622C46.5513 22.9571 46.5183 23.2933 46.4103 23.5707C46.3016 23.8417 46.1344 23.9926 45.9086 24.0233C45.6957 24.0524 45.515 24.0146 45.3665 23.9101C45.2238 23.7982 45.1407 23.6322 45.1173 23.4121C45.085 23.1078 45.1041 22.8556 45.1745 22.6556C45.2448 22.4555 45.268 22.2422 45.244 22.0156C45.2227 21.8149 45.054 21.7361 44.7379 21.7792C44.4153 21.8232 44.0838 21.9669 43.7431 22.2104C43.409 22.453 43.2184 22.8467 43.1716 23.3917L43.7055 28.422C43.7543 28.8817 43.9112 29.1887 44.1763 29.343C44.4478 29.4964 44.8874 29.5383 45.4951 29.4686L45.5271 29.7696C45.287 29.7892 44.9438 29.8229 44.4973 29.8706C44.0566 29.911 43.6169 29.9611 43.1783 30.0209C42.7654 30.0772 42.373 30.1406 42.0009 30.211C41.6281 30.275 41.3457 30.3266 41.1535 30.366Z"
     fill="#322783"
     id="path3" />
  <path
     d="M58.2313 29.914C57.1704 29.7455 56.4044 29.2361 55.9335 28.3858C55.4705 27.5302 55.3895 26.4723 55.6905 25.2122C55.8977 24.3447 56.2336 23.6093 56.698 23.0061C57.1639 22.3965 57.7172 21.952 58.3579 21.6725C59.0066 21.3877 59.7006 21.3041 60.44 21.4215C61.2245 21.546 61.8359 21.8501 62.2743 22.3338C62.7142 22.8112 62.8623 23.3506 62.7186 23.9522C62.6218 24.3574 62.4541 24.6824 62.2154 24.9272C61.9832 25.1729 61.7256 25.2733 61.4427 25.2284C61.2113 25.1916 61.0375 25.095 60.9213 24.9386C60.8132 24.7768 60.787 24.5788 60.843 24.3445C60.902 24.0975 61.0474 23.838 61.2793 23.5659C61.5111 23.2938 61.6618 23.0121 61.7314 22.7208C61.7843 22.4992 61.6958 22.311 61.4658 22.1562C61.2374 21.995 60.9335 21.8843 60.5541 21.8241C59.7954 21.7036 59.1278 21.9558 58.5514 22.5807C57.9751 23.2056 57.5424 24.1227 57.2535 25.3322C56.9677 26.529 56.959 27.4872 57.2276 28.2068C57.4962 28.9264 58.0227 29.3485 58.8071 29.473C59.3408 29.5578 59.8357 29.5115 60.2918 29.3342C60.7544 29.1579 61.1668 28.7863 61.5291 28.2194L61.734 28.5773C61.3686 29.1568 60.8764 29.5551 60.2573 29.7723C59.6461 29.9842 58.9707 30.0314 58.2313 29.914Z"
     fill="#322783"
     id="path4" />
  <path
     d="M68.997 32.158L69.1511 31.8974C69.6172 32.1024 69.9814 32.1806 70.2435 32.132C70.5057 32.0834 70.7511 31.8658 70.9798 31.4791L75.7072 23.4853C75.9127 23.1378 75.9825 22.8161 75.9166 22.5201C75.8599 22.2212 75.618 21.9427 75.1909 21.6845L75.345 21.4239C75.5236 21.5294 75.6937 21.6237 75.8553 21.7069C76.0169 21.7901 76.1802 21.8705 76.3452 21.9481C76.6338 22.0839 76.9131 22.1974 77.183 22.2885C77.4621 22.3769 77.7305 22.4387 77.9883 22.474L72.2964 32.0985C72.0678 32.4852 72.005 32.7887 72.1081 33.0091C72.2112 33.2295 72.4891 33.4534 72.942 33.6808L72.7879 33.9414C72.6119 33.8442 72.3476 33.7056 71.9948 33.5253C71.6454 33.3394 71.291 33.162 70.9317 32.9929C70.5723 32.8239 70.208 32.6632 69.8387 32.511C69.4727 32.3531 69.1921 32.2355 68.997 32.158Z"
     fill="#322783"
     id="path5" />
  <path
     d="M81.7254 40.0007C81.1777 39.4903 80.831 38.9233 80.6856 38.2999C80.5401 37.6764 80.5883 37.0427 80.8303 36.3988C81.0723 35.755 81.4982 35.1539 82.1081 34.5956C83.1118 33.6769 84.1686 33.1714 85.2786 33.0791C86.3981 32.9869 87.3985 33.3514 88.2796 34.1725C88.7654 34.6252 89.0573 35.1367 89.1552 35.707C89.2578 36.2817 89.2003 36.8491 88.9826 37.4091C88.7649 37.9692 88.4232 38.4535 87.9574 38.8623L83.8995 35.0807C83.8419 35.1246 83.765 35.1905 83.669 35.2784C82.5981 36.2587 81.9748 37.1416 81.7992 37.9271C81.6283 38.7171 81.8548 39.4028 82.4787 39.9842C82.8788 40.357 83.344 40.6131 83.8742 40.7524C84.4045 40.8917 84.9857 40.8523 85.618 40.6343L85.5732 41.0316C84.9264 41.2805 84.2687 41.3063 83.6 41.109C82.9361 40.9161 82.3112 40.5467 81.7254 40.0007ZM87.9777 34.3169C87.7205 34.0773 87.3671 33.952 86.9176 33.9412C86.4776 33.9304 86.0062 34.01 85.5032 34.18C85.0099 34.3501 84.5593 34.5822 84.1514 34.8764L87.0663 37.5928C87.9066 36.85 88.3829 36.2248 88.4951 35.7173C88.6121 35.2143 88.4397 34.7475 87.9777 34.3169Z"
     fill="#322783"
     id="path6" />
  <path
     d="M93.5382 57.751L93.8324 57.6799C93.9539 58.1462 94.1119 58.4529 94.3064 58.6002C94.5024 58.7537 94.8187 58.7778 95.2554 58.6723L100.239 57.4685C100.631 57.3737 100.919 57.2036 101.103 56.9583C101.293 56.7115 101.366 56.349 101.322 55.8707L101.616 55.7996C101.644 56.0071 101.675 56.1973 101.709 56.3701C101.743 56.5492 101.779 56.718 101.816 56.8766C101.966 57.5235 102.164 58.045 102.409 58.4411L95.584 60.0898C95.1474 60.1953 94.8752 60.3615 94.7674 60.5884C94.6596 60.8154 94.6545 61.1682 94.7522 61.6469L94.4579 61.718C94.4264 61.5247 94.3729 61.2363 94.2974 60.8527C94.2296 60.4739 94.1523 60.0974 94.0656 59.7232C93.9788 59.349 93.8818 58.974 93.7746 58.598C93.6738 58.2205 93.5949 57.9382 93.5382 57.751ZM104.01 57.3913C103.951 57.1376 104 56.8983 104.155 56.6733C104.316 56.4468 104.529 56.3014 104.795 56.2372C105.067 56.1715 105.319 56.2045 105.55 56.3362C105.781 56.4679 105.926 56.6606 105.985 56.9143C106.041 57.1553 105.994 57.3876 105.846 57.611C105.697 57.8344 105.486 57.979 105.214 58.0448C104.949 58.109 104.694 58.0767 104.45 57.9481C104.213 57.8179 104.066 57.6323 104.01 57.3913Z"
     fill="#322783"
     id="path7" />
  <path
     d="M95.1755 67.9886L95.4778 68.0047C95.4049 68.5734 95.447 68.9693 95.6041 69.1924C95.7605 69.422 96.0467 69.5478 96.4628 69.57L101.582 69.8424C102.064 69.868 102.421 69.7732 102.656 69.5579C102.897 69.343 103.069 68.9618 103.172 68.4142L103.474 68.4303C103.426 68.6164 103.388 68.8063 103.359 69C103.335 69.2004 103.312 69.4009 103.289 69.6014C103.252 69.9118 103.233 70.2165 103.231 70.5157C103.228 70.8214 103.253 71.1123 103.306 71.3884L101.55 71.2949C102.143 71.5933 102.556 71.9829 102.788 72.4637C103.026 72.9448 103.112 73.4667 103.046 74.0293C102.953 74.8311 102.565 75.4319 101.884 75.8316C101.21 76.2316 100.281 76.4002 99.0973 76.3372L95.6939 76.1561C95.2584 76.1329 94.9404 76.2233 94.7399 76.4274C94.5452 76.6383 94.4179 77.0284 94.358 77.5978L94.0557 77.5817C94.0936 77.369 94.1439 77.0496 94.2068 76.6235C94.2761 76.1978 94.3345 75.7812 94.3821 75.3738C94.4259 74.9987 94.4584 74.6361 94.4797 74.2859C94.5074 73.936 94.5254 73.6702 94.5335 73.4884L94.8358 73.5045C94.7772 73.9503 94.8234 74.2554 94.9743 74.4196C95.131 74.5906 95.4271 74.6876 95.8627 74.7108L100.056 74.934C100.869 74.9772 101.48 74.8699 101.889 74.6119C102.298 74.3603 102.534 73.9597 102.599 73.4101C102.698 72.563 102.114 71.8455 100.848 71.2576L96.2941 71.0152C95.878 70.9931 95.5695 71.058 95.3686 71.21C95.1669 71.3684 95.0441 71.6644 95 72.098L94.6977 72.0819C94.7394 71.8369 94.7856 71.5531 94.8363 71.2304C94.8936 70.9082 94.9433 70.566 94.9856 70.2038C95.0317 69.8094 95.0708 69.4178 95.1031 69.0291C95.1419 68.6408 95.166 68.294 95.1755 67.9886Z"
     fill="#322783"
     id="path8" />
  <path
     d="M85.8046 93.6103L86.0342 93.8077C85.6176 94.2452 85.3321 94.5901 85.1776 94.8424C85.0235 95.1034 84.9857 95.3319 85.0642 95.5277C85.1427 95.7235 85.3202 95.9403 85.5967 96.178L91.699 101.423C91.9853 101.67 92.2349 101.82 92.4476 101.874C92.6604 101.929 92.9006 101.875 93.1683 101.711C93.4363 101.556 93.7934 101.273 94.2396 100.861L94.4618 101.052C94.2574 101.244 93.988 101.5 93.6537 101.82C93.3244 102.145 92.9347 102.528 92.4848 102.972C92.1879 103.264 91.884 103.563 91.5732 103.869C91.2627 104.184 90.9822 104.465 90.7317 104.711C90.4815 104.967 90.2984 105.152 90.1825 105.266C89.199 106.234 88.2608 106.84 87.3679 107.082C86.4752 107.332 85.7153 107.188 85.0883 106.649C84.4909 106.136 84.2407 105.54 84.3376 104.862C84.4298 104.188 84.8412 103.314 85.5718 102.24L85.557 102.227C83.1821 104.429 81.3133 104.944 79.9506 103.773C79.2002 103.128 78.9399 102.305 79.1697 101.305C79.3995 100.305 80.0919 99.2358 81.2469 98.0984C81.4835 97.8654 81.8526 97.5111 82.3542 97.0354C82.8561 96.5685 83.3691 96.0769 83.8933 95.5607C84.3526 95.1085 84.7444 94.7181 85.0688 94.3895C85.3932 94.0609 85.6385 93.8012 85.8046 93.6103ZM90.3352 104.679L91.6498 103.37L87.8433 100.098L86.5352 101.386C85.7466 102.163 85.316 102.897 85.2435 103.587C85.171 104.278 85.4507 104.895 86.0827 105.438C86.7344 105.998 87.3984 106.214 88.0747 106.085C88.7464 105.961 89.4999 105.492 90.3352 104.679ZM82.1955 97.6561C80.057 99.7619 79.711 101.437 81.1576 102.68C82.456 103.796 84.0098 103.464 85.819 101.682L87.6211 99.9073L84.4663 97.1955C84.1948 96.962 83.9598 96.8156 83.7612 96.7562C83.558 96.7013 83.339 96.744 83.1041 96.8843C82.8694 97.0334 82.5666 97.2906 82.1955 97.6561Z"
     fill="#322783"
     id="path9" />
  <path
     d="M70.2017 105.98L70.3424 106.248C69.891 106.48 69.6108 106.709 69.5016 106.935C69.3924 107.161 69.4422 107.473 69.651 107.871L73.9676 116.094C74.1552 116.451 74.3988 116.691 74.6985 116.814C74.9952 116.946 75.3815 116.925 75.8573 116.754L75.998 117.022C75.8012 117.095 75.6193 117.168 75.452 117.242C75.2848 117.315 75.1191 117.392 74.9549 117.471C74.6675 117.609 74.4054 117.754 74.1683 117.904C73.9285 118.063 73.7182 118.23 73.5375 118.403L68.3404 108.503C68.1316 108.105 67.9 107.881 67.6456 107.83C67.3911 107.78 67.0322 107.859 66.5687 108.068L66.428 107.8C66.6159 107.724 66.8917 107.605 67.2554 107.444C67.6222 107.289 67.9845 107.125 68.3422 106.953C68.7 106.78 69.0531 106.599 69.4018 106.409C69.7534 106.225 70.0201 106.082 70.2017 105.98Z"
     fill="#322783"
     id="path10" />
  <path
     d="M56.2469 110.776C57.0502 110.645 57.711 110.841 58.2295 111.363C58.7424 111.893 59.083 112.771 59.2513 113.996L59.6778 117.102C59.7433 117.579 59.9023 117.9 60.1547 118.063C60.4015 118.234 60.8112 118.299 61.3838 118.259L61.425 118.559C61.2874 118.561 61.1185 118.576 60.9184 118.602C60.7119 118.629 60.509 118.658 60.3098 118.691C59.9885 118.743 59.6823 118.809 59.3911 118.889C59.0935 118.971 58.793 119.079 58.4897 119.214L57.6487 113.09C57.5495 112.367 57.3469 111.873 57.0409 111.606C56.7285 111.34 56.2992 111.252 55.753 111.341C55.3674 111.403 55.0247 111.611 54.7249 111.963C54.4259 112.321 54.1991 112.846 54.0443 113.537L54.6462 117.92C54.7144 118.417 54.8646 118.745 55.0968 118.905C55.3226 119.066 55.6993 119.13 56.2269 119.097L56.2681 119.397C56.1176 119.402 55.9455 119.417 55.7519 119.442C55.5518 119.467 55.3618 119.495 55.1818 119.524C54.8734 119.574 54.5796 119.635 54.3004 119.707C54.0156 119.786 53.7381 119.894 53.4677 120.03L52.5457 113.316C52.4792 112.832 52.3189 112.502 52.0648 112.326C51.8042 112.151 51.389 112.093 50.8191 112.153L50.7792 111.862C51.1499 111.835 51.5249 111.791 51.904 111.729C52.2253 111.677 52.5352 111.613 52.8337 111.538C53.1313 111.457 53.4281 111.346 53.7241 111.206L53.9553 112.889C54.1162 112.243 54.4035 111.751 54.817 111.414C55.2241 111.077 55.7007 110.865 56.2469 110.776Z"
     fill="#322783"
     id="path11" />
  <path
     d="M38.4906 111.323C39.226 111.464 39.8212 111.759 40.276 112.209C40.7309 112.659 41.0271 113.221 41.1646 113.894C41.3021 114.568 41.261 115.303 41.0414 116.101C40.68 117.412 40.0537 118.403 39.1626 119.072C38.2634 119.746 37.2222 119.97 36.0391 119.745C35.3868 119.62 34.8675 119.343 34.4812 118.912C34.0886 118.481 33.8355 117.97 33.722 117.38C33.6086 116.791 33.6404 116.199 33.8174 115.605L39.2661 116.644C39.2915 116.576 39.3215 116.48 39.3561 116.354C39.7418 114.954 39.8001 113.875 39.531 113.117C39.2556 112.358 38.699 111.898 37.8613 111.738C37.3241 111.636 36.7939 111.667 36.2706 111.831C35.7474 111.996 35.276 112.339 34.8564 112.86L34.683 112.5C35.0985 111.945 35.6418 111.573 36.3132 111.384C36.9782 111.193 37.704 111.173 38.4906 111.323ZM36.218 119.462C36.5634 119.528 36.9293 119.445 37.3158 119.215C37.6942 118.99 38.0512 118.672 38.3867 118.26C38.7141 117.853 38.9723 117.417 39.1613 116.951L35.2475 116.205C34.9309 117.281 34.86 118.063 35.0348 118.552C35.2033 119.04 35.5977 119.343 36.218 119.462Z"
     fill="#322783"
     id="path12" />
</svg>
